name Walk1.mot
datacolumns 19
datarows 30
range 2.70800000 2.73700000
endheader

                time	   L_ground_force_vx	   L_ground_force_vy	   L_ground_force_vz	   L_ground_force_px	   L_ground_force_py	   L_ground_force_pz	   R_ground_force_vx	   R_ground_force_vy	   R_ground_force_vz	   R_ground_force_px	   R_ground_force_py	   R_ground_force_pz	   L_ground_torque_x	   L_ground_torque_y	   L_ground_torque_z	   R_ground_torque_x	   R_ground_torque_y	   R_ground_torque_z	
          2.70800000	         -0.00000000	         -0.00000000	         -0.00000000	          0.00000000	          0.00000000	          0.00000000	          2.91359110	         31.05954866	          2.78949406	          0.31329609	          0.00000000	          0.08611374	          0.00000000	         -0.00000000	          0.00000000	          0.00000000	         -0.82033409	          0.00000000	
          2.70900000	         -0.00000000	         -0.00000000	         -0.00000000	          0.00000000	          0.00000000	          0.00000000	          2.55317050	         28.51554136	          2.54095721	          0.30239272	          0.00000000	          0.08296083	          0.00000000	         -0.00000000	          0.00000000	          0.00000000	         -0.74734318	          0.00000000	
          2.71000000	         -0.00000000	         -0.00000000	         -0.00000000	          0.00000000	          0.00000000	          0.00000000	          2.21359574	         26.08174105	          2.30395255	          0.29132119	          0.00000000	          0.07977410	          0.00000000	         -0.00000000	          0.00000000	          0.00000000	         -0.67775228	          0.00000000	
          2.71100000	         -0.00000000	         -0.00000000	         -0.00000000	          0.00000000	          0.00000000	          0.00000000	          1.89444778	         23.75716269	          2.07839336	          0.28011642	          0.00000000	          0.07656325	          0.00000000	         -0.00000000	          0.00000000	          0.00000000	         -0.61152639	          0.00000000	
          2.71200000	         -0.00000000	         -0.00000000	         -0.00000000	          0.00000000	          0.00000000	          0.00000000	          1.59524252	         21.54080060	          1.86415837	          0.26881734	          0.00000000	          0.07333887	          0.00000000	         -0.00000000	          0.00000000	          0.00000000	         -0.54862417	          0.00000000	
          2.71300000	         -0.00000000	         -0.00000000	         -0.00000000	          0.00000000	          0.00000000	          0.00000000	          1.31543923	         19.43158052	          1.66109427	          0.25746657	          0.00000000	          0.07011233	          0.00000000	         -0.00000000	          0.00000000	          0.00000000	         -0.48899805	          0.00000000	
          2.71400000	         -0.00000000	         -0.00000000	         -0.00000000	          0.00000000	          0.00000000	          0.00000000	          1.05445388	         17.42828076	          1.46901863	          0.24610848	          0.00000000	          0.06689531	          0.00000000	         -0.00000000	          0.00000000	          0.00000000	         -0.43259391	          0.00000000	
          2.71500000	         -0.00000000	         -0.00000000	         -0.00000000	          0.00000000	          0.00000000	          0.00000000	          0.81167406	         15.52945247	          1.28772298	          0.23478612	          0.00000000	          0.06369903	          0.00000000	         -0.00000000	          0.00000000	          0.00000000	         -0.37935082	          0.00000000	
          2.71600000	         -0.00000000	         -0.00000000	         -0.00000000	          0.00000000	          0.00000000	          0.00000000	          0.58646927	         13.73338828	          1.11697584	          0.22353923	          0.00000000	          0.06053380	          0.00000000	         -0.00000000	          0.00000000	          0.00000000	         -0.32920119	          0.00000000	
          2.71700000	         -0.00000000	         -0.00000000	         -0.00000000	          0.00000000	          0.00000000	          0.00000000	          0.37819619	         12.03813767	          0.95652553	          0.21240390	          0.00000000	          0.05740896	          0.00000000	         -0.00000000	          0.00000000	          0.00000000	         -0.28207153	          0.00000000	
          2.71800000	         -0.00000000	         -0.00000000	         -0.00000000	          0.00000000	          0.00000000	          0.00000000	          0.18620224	         10.44153501	          0.80610290	          0.20141271	          0.00000000	          0.05433286	          0.00000000	         -0.00000000	          0.00000000	          0.00000000	         -0.23788314	          0.00000000	
          2.71900000	         -0.00000000	         -0.00000000	         -0.00000000	          0.00000000	          0.00000000	          0.00000000	          0.00982881	          8.94122602	          0.66542374	          0.19059495	          0.00000000	          0.05131300	          0.00000000	         -0.00000000	          0.00000000	          0.00000000	         -0.19655292	          0.00000000	
          2.72000000	         -0.00000000	         -0.00000000	         -0.00000000	          0.00000000	          0.00000000	          0.00000000	         -0.15158577	          7.53469274	          0.53419123	          0.17997674	          0.00000000	          0.04835600	          0.00000000	         -0.00000000	          0.00000000	          0.00000000	         -0.15799405	          0.00000000	
          2.72100000	         -0.00000000	         -0.00000000	         -0.00000000	          0.00000000	          0.00000000	          0.00000000	         -0.29870339	          6.21927693	          0.41209808	          0.16958125	          0.00000000	          0.04546769	          0.00000000	         -0.00000000	          0.00000000	          0.00000000	         -0.12211659	          0.00000000	
          2.72200000	         -0.00000000	         -0.00000000	         -0.00000000	          0.00000000	          0.00000000	          0.00000000	         -0.43218374	          4.99220205	          0.29882857	          0.15942882	          0.00000000	          0.04265314	          0.00000000	         -0.00000000	          0.00000000	          0.00000000	         -0.08882813	          0.00000000	
          2.72300000	         -0.00000000	         -0.00000000	         -0.00000000	          0.00000000	          0.00000000	          0.00000000	         -0.55268190	          3.85059381	          0.19406050	          0.14953715	          0.00000000	          0.03991672	          0.00000000	         -0.00000000	          0.00000000	          0.00000000	         -0.05803433	          0.00000000	
          2.72400000	         -0.00000000	         -0.00000000	         -0.00000000	          0.00000000	          0.00000000	          0.00000000	         -0.66084636	          2.79149936	          0.09746694	          0.13992144	          0.00000000	          0.03726213	          0.00000000	         -0.00000000	          0.00000000	          0.00000000	         -0.02963945	          0.00000000	
          2.72500000	         -0.00000000	         -0.00000000	         -0.00000000	          0.00000000	          0.00000000	          0.00000000	         -0.75731704	          1.81190511	          0.00871786	          0.13059457	          0.00000000	          0.03469244	          0.00000000	         -0.00000000	          0.00000000	          0.00000000	         -0.00354682	          0.00000000	
          2.72600000	         -0.00000000	         -0.00000000	         -0.00000000	          0.00000000	          0.00000000	          0.00000000	         -0.84272365	          0.90875328	         -0.07251835	          0.12156722	          0.00000000	          0.03221014	          0.00000000	         -0.00000000	          0.00000000	          0.00000000	          0.02034070	          0.00000000	
          2.72700000	         -0.00000000	         -0.00000000	         -0.00000000	          0.00000000	          0.00000000	          0.00000000	         -0.91768418	          0.07895720	         -0.14657348	          0.11284804	          0.00000000	          0.02981718	          0.00000000	         -0.00000000	          0.00000000	          0.00000000	          0.04212035	          0.00000000	
          2.72800000	         -0.00000000	         -0.00000000	         -0.00000000	          0.00000000	          0.00000000	          0.00000000	         -0.98280354	         -0.68058451	         -0.21377828	          0.10444377	          0.00000000	          0.02751500	          0.00000000	         -0.00000000	          0.00000000	          0.00000000	          0.06188904	          0.00000000	
          2.72900000	          0.00000000	         -0.00000000	         -0.00000000	          0.00000000	          0.00000000	          0.00000000	         -1.03867239	         -1.37297506	         -0.27446122	          0.09635940	          0.00000000	          0.02530460	          0.00000000	         -0.00000000	          0.00000000	          0.00000000	          0.07974305	          0.00000000	
          2.73000000	          0.00000000	         -0.00000000	         -0.00000000	          0.00000000	          0.00000000	          0.00000000	         -1.08586614	         -2.00130752	         -0.32894752	          0.08859828	          0.00000000	          0.02318651	          0.00000000	         -0.00000000	          0.00000000	          0.00000000	          0.09577770	          0.00000000	
          2.73100000	          0.00000000	          0.00000000	         -0.00000000	          0.00000000	          0.00000000	          0.00000000	         -1.12494405	         -2.56865407	         -0.37755815	          0.08116225	          0.00000000	          0.02116089	          0.00000000	         -0.00000000	          0.00000000	          0.00000000	          0.11008710	          0.00000000	
          2.73200000	          0.00000000	          0.00000000	         -0.00000000	          0.00000000	          0.00000000	          0.00000000	         -1.15644848	         -3.07805610	         -0.42060900	          0.07405177	          0.00000000	          0.01922754	          0.00000000	         -0.00000000	          0.00000000	          0.00000000	          0.12276386	          0.00000000	
          2.73300000	          0.00000000	          0.00000000	         -0.00000000	          0.00000000	          0.00000000	          0.00000000	         -1.18090433	         -3.53251539	         -0.45841010	          0.06726603	          0.00000000	          0.01738592	          0.00000000	         -0.00000000	          0.00000000	          0.00000000	          0.13389890	          0.00000000	
          2.73400000	          0.00000000	          0.00000000	         -0.00000000	          0.00000000	          0.00000000	          0.00000000	         -1.19881848	         -3.93498610	         -0.49126498	          0.06080305	          0.00000000	          0.01563518	          0.00000000	         -0.00000000	          0.00000000	          0.00000000	          0.14358121	          0.00000000	
          2.73500000	          0.00000000	          0.00000000	         -0.00000000	          0.00000000	          0.00000000	          0.00000000	         -1.21067944	         -4.28836769	         -0.51947001	          0.05465983	          0.00000000	          0.01397421	          0.00000000	         -0.00000000	          0.00000000	          0.00000000	          0.15189774	          0.00000000	
          2.73600000	          0.00000000	          0.00000000	          0.00000000	          0.00000000	          0.00000000	          0.00000000	         -1.21695705	         -4.59549855	         -0.54331398	          0.04883238	          0.00000000	          0.01240166	          0.00000000	         -0.00000000	          0.00000000	          0.00000000	          0.15893317	          0.00000000	
          2.73700000	          0.00000000	          0.00000000	          0.00000000	          0.00000000	          0.00000000	          0.00000000	         -1.21810232	         -4.85915055	         -0.56307758	          0.04331587	          0.00000000	          0.01091595	          0.00000000	         -0.00000000	          0.00000000	          0.00000000	          0.16476985	          0.00000000	
